<svg xmlns="http://www.w3.org/2000/svg" xmlns:xlink="http://www.w3.org/1999/xlink" id="Camada_1" x="0px" y="0px" viewBox="0 0 150 150" style="enable-background:new 0 0 150 150;" xml:space="preserve"><style type="text/css">	.st0{fill:#A01D22;}</style><g>	<path class="st0" d="M83,63.9c0-4.8-3.9-8.8-8.8-8.8c-4.8,0-8.8,3.9-8.8,8.8c0,3.7,2.3,6.8,5.5,8.1v44.3c0,1.5,1.2,2.6,2.6,2.6h1.3  c1.5,0,2.6-1.2,2.6-2.6V72C80.7,70.7,83,67.6,83,63.9z"></path>	<g>		<path class="st0" d="M42.3,35.8c1.1-1.2,1.1-3-0.1-4.2l-0.4-0.4c-1.1-1.1-3-1.1-4.1,0.1c-7.6,8.6-12.3,19.9-12.3,32.3   c0,12.4,4.6,23.7,12.3,32.3c1.1,1.2,2.9,1.2,4.1,0.1l0.4-0.4c1.1-1.1,1.1-3,0.1-4.2C35.8,84,31.9,74.2,31.9,63.6   C31.9,53,35.9,43.3,42.3,35.8z"></path>		<path class="st0" d="M106.1,91.4c-1.1,1.2-1.1,3,0.1,4.2l0.4,0.4c1.1,1.1,3,1.1,4.1-0.1C118.3,87.3,123,76,123,63.6   c0-12.4-4.6-23.7-12.3-32.3c-1.1-1.2-2.9-1.2-4.1-0.1l-0.4,0.4c-1.1,1.1-1.1,3-0.1,4.2c6.5,7.4,10.4,17.2,10.4,27.8   C116.5,74.2,112.6,83.9,106.1,91.4z"></path>	</g>	<g>		<path class="st0" d="M96.5,81.7c-1,1.2-1,3.1,0.1,4.2l0.4,0.4c1.1,1.1,3,1.1,4-0.1c5.2-6.1,8.3-14,8.3-22.7   c0-8.6-3.1-16.5-8.3-22.7c-1-1.2-2.9-1.2-4-0.1l-0.4,0.4c-1.1,1.1-1.1,3-0.1,4.2c4,4.9,6.5,11.3,6.5,18.1   C102.9,70.5,100.5,76.8,96.5,81.7z"></path>		<path class="st0" d="M52,45.5c1-1.2,1-3.1-0.1-4.2l-0.4-0.4c-1.1-1.1-3-1.1-4,0.1c-5.2,6.1-8.3,14-8.3,22.7   c0,8.6,3.1,16.5,8.3,22.7c1,1.2,2.9,1.2,4,0.1l0.4-0.4c1.1-1.1,1.1-3,0.1-4.2c-4-4.9-6.5-11.3-6.5-18.1   C45.5,56.7,47.9,50.4,52,45.5z"></path>	</g>	<g>		<path class="st0" d="M87.3,72.6c-0.9,1.3-0.9,3.2,0.2,4.3l0.4,0.4c1.1,1.1,3,1.1,4-0.1c2.9-3.8,4.6-8.4,4.6-13.5   s-1.7-9.8-4.6-13.5c-1-1.3-2.8-1.3-4-0.1l-0.4,0.4c-1.1,1.1-1.1,3-0.2,4.3c1.8,2.5,2.8,5.6,2.8,9C90.1,66.9,89,70,87.3,72.6z"></path>		<path class="st0" d="M61.2,54.6c0.9-1.3,0.9-3.2-0.2-4.3l-0.4-0.4c-1.1-1.1-3-1.1-4,0.1c-2.9,3.8-4.6,8.4-4.6,13.5   s1.7,9.8,4.6,13.5c1,1.3,2.8,1.3,4,0.1l0.4-0.4c1.1-1.1,1.1-3,0.2-4.3c-1.8-2.5-2.8-5.6-2.8-9C58.4,60.3,59.4,57.2,61.2,54.6z"></path>	</g></g></svg>