<svg xmlns="http://www.w3.org/2000/svg" xmlns:xlink="http://www.w3.org/1999/xlink" id="Camada_1" x="0px" y="0px" viewBox="0 0 150 150" style="enable-background:new 0 0 150 150;" xml:space="preserve"><style type="text/css">	.st0{fill:#A01D22;stroke:#A01D22;stroke-width:1.4173;stroke-miterlimit:10;}</style><g>	<g>		<path class="st0" d="M85.5,65.4l-7-1.1c-0.2-0.8-0.5-1.6-0.9-2.4c-0.3-0.8-0.7-1.5-1.1-2.3l4.2-5.8c0.4-0.5,0.3-1.2-0.1-1.6l0,0   l-7.5-7.5c-0.5-0.5-1.2-0.5-1.7-0.1l-5.8,4.2c-0.7-0.4-1.5-0.8-2.3-1.1s-1.6-0.6-2.4-0.9l-1.1-7.1c-0.1-0.6-0.6-1.1-1.2-1.1l0,0   H48.1c-0.7,0-1.2,0.5-1.2,1.2l-1.1,7c-0.8,0.2-1.6,0.5-2.4,0.9c-0.8,0.3-1.5,0.7-2.3,1.1l-5.8-4.2c-0.5-0.4-1.2-0.3-1.6,0.1l0,0   l-7.5,7.5c-0.5,0.5-0.5,1.2-0.1,1.7l4.2,5.8c-0.4,0.7-0.8,1.5-1.1,2.3c-0.3,0.8-0.6,1.6-0.9,2.4l-7.1,1.1   c-0.6,0.1-1.1,0.6-1.1,1.2l0,0v10.6c0,0.7,0.5,1.2,1.2,1.2l7,1.1c0.2,0.8,0.5,1.6,0.9,2.4c0.3,0.8,0.7,1.5,1.1,2.3l-4.2,5.8   c-0.4,0.5-0.3,1.2,0.1,1.6l0,0l7.5,7.5c0.5,0.5,1.2,0.5,1.7,0.1l5.8-4.2c0.7,0.4,1.5,0.8,2.3,1.1s1.6,0.6,2.4,0.9l1.1,7.1   c0.1,0.6,0.6,1.1,1.2,1.1l0,0h10.5c0.7,0,1.2-0.5,1.2-1.2l1.1-7c0.8-0.2,1.6-0.5,2.4-0.9c0.8-0.3,1.5-0.7,2.3-1.1l5.8,4.2   c0.5,0.4,1.2,0.3,1.6-0.1l0,0l7.5-7.5c0.5-0.5,0.5-1.2,0.1-1.7l-4.2-5.8c0.4-0.7,0.8-1.5,1.1-2.3c0.3-0.8,0.6-1.6,0.9-2.4l7.1-1.1   c0.6-0.1,1.1-0.6,1.1-1.2l0,0V66.6C86.7,66,86.2,65.5,85.5,65.4z M84.2,76.2l-6.7,1.1c-0.5,0-1,0.4-1.1,0.9c-0.3,1-0.6,1.9-1,2.8   c-0.4,0.9-0.8,1.8-1.3,2.7l0,0c-0.2,0.4-0.2,0.9,0.1,1.4l4.1,5.6l-6,6l-5.6-4c-0.4-0.3-0.9-0.4-1.4-0.1c-0.9,0.5-1.8,0.9-2.7,1.3   c-0.9,0.4-1.9,0.7-2.8,1l0,0c-0.5,0.1-0.8,0.5-0.9,1l-1.1,6.8h-8.5L48.2,96c0-0.5-0.4-1-0.9-1.1c-1-0.3-1.9-0.6-2.8-1   c-0.9-0.4-1.8-0.8-2.7-1.3l0,0c-0.4-0.2-0.9-0.2-1.4,0.1l-5.6,4.1l-6-6l4-5.6c0.3-0.4,0.4-0.9,0.1-1.4c-0.5-0.9-0.9-1.8-1.3-2.7   s-0.7-1.9-1-2.8l0,0c-0.1-0.5-0.5-0.8-1-0.9l-6.8-1.1v-8.5l6.7-1.1c0.5,0,1-0.4,1.1-0.9c0.3-1,0.6-1.9,1-2.8   c0.4-0.9,0.8-1.8,1.3-2.7l0,0c0.2-0.4,0.2-0.9-0.1-1.4l-4.1-5.6l6-6l5.6,4c0.4,0.3,0.9,0.4,1.4,0.1c0.9-0.5,1.8-0.9,2.7-1.3   c0.9-0.4,1.9-0.7,2.8-1l0,0c0.5-0.1,0.8-0.5,0.9-1l1.1-6.8h8.5l1.1,6.7c0,0.5,0.4,1,0.9,1.1c1,0.3,1.9,0.6,2.8,1   c0.9,0.4,1.8,0.8,2.7,1.3l0,0c0.4,0.2,0.9,0.2,1.4-0.1l5.6-4.1l6,6l-4,5.6c-0.3,0.4-0.4,0.9-0.1,1.4c0.5,0.9,0.9,1.8,1.3,2.7   s0.7,1.9,1,2.8l0,0c0.1,0.5,0.5,0.8,1,0.9l6.8,1.1C84.2,67.7,84.2,76.2,84.2,76.2z"></path>		<path class="st0" d="M53.4,57.8c-3.9,0-7.5,1.6-10,4.2c-2.6,2.6-4.2,6.1-4.2,10s1.6,7.5,4.2,10c2.6,2.6,6.1,4.2,10,4.2   s7.5-1.6,10-4.2c2.6-2.6,4.2-6.1,4.2-10s-1.6-7.5-4.2-10C60.9,59.4,57.3,57.8,53.4,57.8z M61.7,80.2c-2.1,2.1-5,3.4-8.3,3.4   s-6.2-1.3-8.3-3.4c-2.1-2.1-3.4-5-3.4-8.3c0-3.2,1.3-6.2,3.4-8.3c2.1-2.1,5-3.4,8.3-3.4s6.2,1.3,8.3,3.4c2.1,2.1,3.4,5,3.4,8.3   S63.8,78.1,61.7,80.2z"></path>	</g>	<g>		<path class="st0" d="M108.6,83.7L108.6,83.7c-2.7-1.1-5.6-1.1-8.1-0.1s-4.6,3-5.8,5.7c-1.1,2.7-1.1,5.6-0.1,8.1s3,4.6,5.7,5.8   c2.7,1.1,5.6,1.1,8.1,0.1s4.6-3,5.8-5.7l0,0c1.1-2.7,1.1-5.6,0.1-8.1S111.3,84.8,108.6,83.7z M112,96.5c0,0.1-0.1,0.1-0.1,0.2   c-0.9,2-2.5,3.5-4.4,4.2c-1.9,0.8-4.1,0.8-6.2,0c-2-0.9-3.5-2.5-4.3-4.4s-0.8-4.1,0-6.2c0.9-2,2.5-3.6,4.4-4.3   c1.9-0.8,4.1-0.8,6.1,0c0.1,0,0.1,0.1,0.2,0.1c2,0.9,3.5,2.5,4.2,4.4C112.8,92.3,112.8,94.5,112,96.5z"></path>		<path class="st0" d="M127.9,97.8L127.9,97.8l-4.2-2.6c0-0.5,0.1-1.1,0.1-1.6c0-0.6,0-1.1-0.1-1.6l4.2-2.6c0.5-0.3,0.7-1,0.5-1.6   l-2.9-7.1c-0.2-0.6-0.9-0.9-1.5-0.7l-4.8,1.1c-0.3-0.4-0.7-0.8-1.1-1.2s-0.8-0.8-1.2-1.1l1.2-4.8c0.2-0.6-0.2-1.3-0.8-1.5l-7-2.9   c-0.6-0.2-1.2,0-1.5,0.5l0,0l-2.6,4.2c-0.5,0-1.1-0.1-1.6-0.1c-0.6,0-1.1,0-1.6,0.1l-2.6-4.2c-0.3-0.5-1-0.7-1.6-0.5l-7.1,2.9   c-0.6,0.2-0.9,0.9-0.7,1.5l1.1,4.8c-0.4,0.3-0.8,0.7-1.2,1.1c-0.4,0.4-0.8,0.8-1.1,1.2L85,79.9c-0.6-0.2-1.3,0.2-1.5,0.8l-2.9,7   c-0.2,0.6,0,1.2,0.5,1.5l0,0l4.2,2.6c0,0.5-0.1,1.1-0.1,1.6c0,0.6,0,1.1,0.1,1.6l-4.2,2.6c-0.5,0.3-0.7,1-0.5,1.6l2.9,7.1   c0.2,0.6,0.9,0.9,1.5,0.7l4.8-1.1c0.3,0.4,0.7,0.8,1.1,1.2s0.8,0.8,1.2,1.1l-1.2,4.8c-0.2,0.6,0.2,1.3,0.8,1.5l7,2.9   c0.6,0.2,1.2,0,1.5-0.5l0,0l2.6-4.2c0.5,0,1.1,0.1,1.6,0.1c0.6,0,1.1,0,1.6-0.1l2.6,4.2c0.3,0.5,1,0.7,1.6,0.5l7.1-2.9   c0.6-0.2,0.9-0.9,0.7-1.5l-1.1-4.8c0.4-0.3,0.8-0.7,1.2-1.1c0.4-0.4,0.8-0.8,1.1-1.2l4.8,1.2c0.6,0.2,1.3-0.2,1.5-0.8l2.9-7   C128.6,98.8,128.4,98.2,127.9,97.8z M123.5,104.5l-4.5-1.1c-0.5-0.1-1,0-1.3,0.4c-0.4,0.6-0.9,1.1-1.4,1.6s-1,0.9-1.5,1.3   c-0.4,0.3-0.7,0.8-0.5,1.3l1.1,4.6l-5.1,2.1l-2.4-4c-0.2-0.4-0.7-0.7-1.2-0.6c-0.7,0.1-1.4,0.1-2.1,0.1s-1.4-0.1-2-0.1   c-0.5-0.1-1,0.1-1.3,0.6l-2.5,4l-5.1-2.1l1.1-4.5c0.1-0.5,0-1-0.4-1.3c-0.6-0.4-1.1-0.9-1.6-1.4s-0.9-1-1.3-1.5   c-0.3-0.4-0.8-0.7-1.3-0.5l-4.6,1.1l-2.1-5.1l4-2.4c0.4-0.2,0.7-0.7,0.6-1.2C88,95.1,88,94.4,88,93.7c0-0.7,0.1-1.4,0.1-2   c0.1-0.5-0.1-1-0.6-1.3l-4-2.5l2.1-5.1l4.5,1.1c0.5,0.1,1,0,1.3-0.4c0.4-0.6,0.9-1.1,1.4-1.6s1-0.9,1.5-1.3   c0.4-0.3,0.7-0.8,0.5-1.3l-1.1-4.6l5.1-2.1l2.4,4c0.2,0.4,0.7,0.7,1.2,0.6c0.7-0.1,1.4-0.1,2.1-0.1s1.4,0.1,2,0.1   c0.5,0.1,1-0.1,1.3-0.6l2.5-4l5.1,2.1l-1.1,4.5c-0.1,0.5,0,1,0.4,1.3c0.6,0.4,1.1,0.9,1.6,1.4s0.9,1,1.3,1.5   c0.3,0.4,0.8,0.7,1.3,0.5l4.6-1.1l2.1,5.1l-4,2.4c-0.4,0.2-0.7,0.7-0.6,1.2c0.1,0.7,0.1,1.4,0.1,2.1c0,0.7-0.1,1.4-0.1,2   c-0.1,0.5,0.1,1,0.6,1.3l4,2.5L123.5,104.5z"></path>	</g>	<path class="st0" d="M103.3,47.6L103.3,47.6l1.1,0.6l-0.1,0.2c0.7,0.6,1.3,1.2,1.9,2c0.8,1.1,1.3,2.3,1.6,3.5  c0.3,1.2,0.3,2.6,0.1,3.9c-0.2,1.2-0.6,2.5-1.3,3.6l-0.6,1.1l-0.2-0.1c-0.6,0.7-1.2,1.3-2,1.9c-1.1,0.8-2.3,1.3-3.5,1.6  s-2.6,0.3-3.9,0.1c-1.2-0.2-2.5-0.6-3.6-1.3l-1.1-0.6l0.1-0.2c-0.7-0.6-1.3-1.2-1.9-2c-0.8-1.1-1.3-2.3-1.6-3.5  c-0.3-1.2-0.3-2.5-0.1-3.8c0.2-1.2,0.6-2.5,1.3-3.6l0,0l0,0l0,0l0,0l0.6-1h0.1c0.6-0.7,1.2-1.4,2-1.9c1.1-0.8,2.3-1.3,3.5-1.6  s2.5-0.3,3.8-0.1C101,46.5,102.2,46.9,103.3,47.6L103.3,47.6L103.3,47.6L103.3,47.6z M102,49.7c-0.8-0.5-1.7-0.8-2.6-1  c-1-0.2-1.9-0.1-2.9,0.1c-1,0.2-1.9,0.6-2.7,1.2c-0.8,0.6-1.4,1.3-2,2.1l0,0v0.1c-0.5,0.9-0.8,1.8-1,2.7c-0.2,1-0.1,1.9,0.1,2.9  s0.6,1.9,1.2,2.7s1.3,1.4,2.1,2l0,0l0,0l0,0l0,0l0.2,0.1c0.8,0.5,1.7,0.8,2.5,0.9c1,0.2,2,0.1,2.9-0.1c1-0.2,1.9-0.6,2.7-1.2  c0.8-0.6,1.4-1.3,2-2.1l0,0l0,0l0,0l0,0l0,0l0,0c0.5-0.9,0.9-1.8,1-2.7c0.2-1,0.1-2-0.1-2.9c-0.2-1-0.6-1.9-1.2-2.7  S102.9,50.4,102,49.7L102,49.7L102,49.7L102,49.7z"></path>	<path class="st0" d="M114.1,37.4l-6.4-4c-0.5-0.3-1.2-0.2-1.6,0.2l0,0l-3.2,3.8c-0.5-0.1-1.1-0.2-1.6-0.3s-1.1-0.1-1.6-0.2  l-1.9-4.6c-0.2-0.6-0.9-0.9-1.4-0.7l0,0L89,33.4c-0.6,0.1-1,0.7-1,1.3l0.4,4.9c-0.5,0.3-0.9,0.6-1.4,0.9c-0.4,0.3-0.9,0.6-1.3,1  l-4.6-1.9c-0.6-0.2-1.3,0-1.6,0.6l-2.4,4l2,1.5l2-3.3l4.3,1.8l0,0c0.4,0.2,1,0.1,1.3-0.2c0.5-0.5,1.1-0.9,1.6-1.3  c0.6-0.4,1.1-0.8,1.7-1.1c0.5-0.2,0.8-0.7,0.7-1.2l-0.3-4.7l5.4-1.3l1.8,4.3c0.2,0.4,0.6,0.8,1.1,0.8c0.7,0,1.4,0.1,2.1,0.2  c0.7,0.1,1.4,0.3,2.1,0.5l0,0c0.5,0.1,1,0,1.3-0.4l3.1-3.5l4.7,2.9l-1.8,4.3l0,0c-0.2,0.4-0.1,1,0.2,1.3c0.5,0.5,0.9,1.1,1.3,1.6  c0.4,0.6,0.8,1.1,1.1,1.7c0.2,0.5,0.7,0.8,1.2,0.7l4.7-0.3l1.3,5.4l-4.3,1.8c-0.4,0.2-0.8,0.6-0.8,1.1c0,0.7-0.1,1.4-0.2,2.1  c-0.1,0.7-0.3,1.4-0.5,2.1l0,0c-0.1,0.5,0,1,0.4,1.3l3.5,3.1l-1.3,2.2l2.3,1.1l1.7-2.8c0.3-0.5,0.2-1.2-0.2-1.6l0,0l-3.8-3.2  c0.1-0.5,0.2-1.1,0.3-1.6c0.1-0.5,0.1-1.1,0.2-1.6l4.6-1.9c0.6-0.2,0.9-0.9,0.7-1.4l0,0l-1.8-7.4c-0.1-0.6-0.7-1-1.3-1l-4.9,0.4  c-0.3-0.5-0.6-0.9-0.9-1.4c-0.3-0.4-0.6-0.9-1-1.3l1.9-4.6C114.9,38.4,114.7,37.7,114.1,37.4z"></path></g></svg>